<?xml version="1.0" standalone="no"?>
<!DOCTYPE svg PUBLIC "-//W3C//DTD SVG 20010904//EN"
 "http://www.w3.org/TR/2001/REC-SVG-20010904/DTD/svg10.dtd">
<svg version="1.0" xmlns="http://www.w3.org/2000/svg"
 width="232.000000pt" height="237.000000pt" viewBox="0 0 232.000000 237.000000"
 preserveAspectRatio="xMidYMid meet">
<metadata>
Created by potrace 1.16, written by Peter Selinger 2001-2019
</metadata>
<g transform="translate(0.000000,237.000000) scale(0.100000,-0.100000)"
fill="#000000" stroke="none">
<path d="M1351 1969 c-74 -13 -218 -62 -293 -100 -165 -83 -369 -257 -487
-414 -70 -94 -165 -290 -190 -394 -41 -165 -24 -341 42 -453 69 -116 237 -212
364 -206 28 1 30 3 23 23 -19 49 27 101 230 264 223 178 373 314 493 446 200
220 269 326 303 470 20 82 28 95 60 95 29 0 25 13 -25 89 -43 67 -130 132
-213 161 -73 25 -223 34 -307 19z m315 -83 c36 -15 43 -23 53 -61 6 -24 11
-59 11 -77 0 -19 7 -45 17 -58 9 -14 10 -19 3 -12 -20 17 -35 15 -20 -3 10
-13 11 -18 1 -28 -10 -9 -11 -8 -5 8 4 13 4 16 -3 10 -5 -5 -17 -37 -27 -70
-84 -278 -390 -634 -710 -825 -144 -86 -295 -139 -398 -140 -23 0 -38 -5 -39
-12 0 -10 -2 -10 -6 0 -2 6 -9 12 -15 12 -6 0 -8 -6 -5 -14 3 -8 -1 -22 -9
-33 -15 -17 -15 -17 -6 2 12 22 -7 69 -31 78 -19 7 -37 82 -37 150 0 131 57
337 132 475 140 260 395 477 665 568 163 55 340 67 429 30z"/>
<path d="M1356 1870 c-48 -10 -90 -20 -92 -22 -2 -2 52 -4 119 -3 106 0 127
-3 162 -21 58 -32 77 -57 95 -131 17 -64 16 -67 -6 -146 -13 -45 -21 -83 -20
-85 6 -5 48 101 50 127 1 14 4 31 7 36 17 30 30 108 27 165 -3 61 -5 66 -33
79 -48 24 -204 24 -309 1z"/>
<path d="M1115 1510 l-39 -40 62 -62 62 -62 40 39 c50 49 55 91 12 107 -16 6
-33 21 -38 32 -16 37 -55 32 -99 -14z"/>
<path d="M995 1398 c-37 -33 -43 -85 -15 -121 47 -59 112 -56 163 8 l29 36
-27 34 c-14 19 -30 35 -34 35 -4 0 -18 -11 -31 -25 -19 -20 -21 -27 -10 -40 7
-8 16 -12 21 -9 5 3 9 1 9 -3 0 -16 -24 -33 -45 -33 -49 0 -65 71 -20 92 30
13 34 48 6 48 -11 0 -32 -10 -46 -22z"/>
<path d="M903 1303 c-21 -8 -15 -24 28 -70 38 -41 40 -46 25 -61 -15 -15 -19
-13 -59 26 -46 45 -58 50 -76 28 -9 -10 1 -24 43 -65 60 -56 80 -61 120 -30
41 32 36 79 -15 134 -42 46 -45 47 -66 38z"/>
<path d="M547 1173 c-8 -14 -45 -136 -58 -193 -13 -55 -18 -274 -7 -286 13
-12 83 -23 86 -13 3 6 10 5 20 -3 12 -11 16 -11 20 0 3 9 8 10 16 3 14 -11
134 9 186 33 l35 15 -45 -7 c-25 -4 -71 -6 -103 -5 -73 2 -127 34 -159 96 -29
56 -29 189 1 292 18 63 21 91 8 68z"/>
<path d="M765 1160 c-11 -4 -33 -22 -50 -39 l-29 -32 62 -62 c58 -58 63 -61
79 -45 16 16 16 19 0 36 -24 26 -1 47 36 33 20 -8 28 -6 42 9 15 17 14 19 -19
30 -20 6 -36 17 -36 24 0 34 -49 61 -85 46z"/>
<path d="M1881 1681 c-6 -4 -19 -39 -26 -77 -8 -38 -30 -99 -48 -136 -18 -38
-30 -68 -27 -68 15 0 51 49 74 102 31 69 40 76 62 43 21 -33 21 -175 -1 -259
-66 -254 -345 -580 -640 -749 -95 -54 -168 -77 -245 -77 -63 0 -80 11 -80 52
0 22 19 49 83 115 l82 87 -65 -50 c-86 -65 -179 -160 -186 -190 -3 -13 -3 -35
0 -49 6 -22 12 -25 54 -25 136 0 389 112 559 247 185 147 353 363 422 542 60
155 77 346 41 449 -13 36 -39 55 -59 43z"/>
<path d="M0 20 c0 -7 392 -10 1155 -10 763 0 1155 3 1155 10 0 7 -392 10
-1155 10 -763 0 -1155 -3 -1155 -10z"/>
</g>
</svg>
